<?xml version="1.0" encoding="utf-8"?>
<svg xmlns="http://www.w3.org/2000/svg" viewBox="-25 -137.5 400 400" class="css-1j8o68f" xmlns:bx="https://boxy-svg.com">
  <defs id="SvgjsDefs3580">
    <bx:grid x="-24.624" y="-37.471" width="50.218" height="50.217"/>
  </defs>
  <rect x="-25" y="-137.5" width="400" height="400" style="fill: #404040;"/>
  <g transform="matrix(1, 0, 0, 1, -0.000008, -0.033298)">
    <g id="SvgjsG3581" featurekey="symbolFeature-0" transform="matrix(2.212749, 0, 0, 2.212749, 64.36255, -91.08909)" fill="#ffffff" style="">
      <g xmlns="http://www.w3.org/2000/svg">
        <path d="M56.5,62.9C56.5,62.9,56.5,62.9,56.5,62.9c-1.9-1.9-3.6-4.9-4.1-5.8c-0.3-0.4-0.6-0.9-0.8-1.3c-5.6,0.6-5.8,2.4-5.8,2.4   c0,0,0,0,0,0c0,0,0,0,0,0c0,0,2.2,6.8,4.7,7.7h1.7c0.4-0.7,1.4-1.9,3.9-2.8L56.5,62.9z"/>
        <path d="M22.9,48.3c0.2,0.1,0.5,0.1,0.7,0.1c0.4,0,0.8-0.1,1.2-0.3l1-0.4c-2.6-0.3-4.2-2.3-4.8-4.2c-1.8,0.5-3.8,1.8-5.1,4.5   c1-0.2,1.9-0.2,2.7-0.2C20.4,47.8,21.9,48.1,22.9,48.3z"/>
        <path d="M41.1,63.4c-2.6,0.3-7.3,0.9-10,1.2c-2.2,0.3-3.1,0.7-3.5,0.9c-0.1,4.7,1.1,12.2,5.6,15.8c0.1,0.1,0.3,0.2,0.4,0.2   c0.3,0,0.6-0.2,0.7-0.5l1.2-4.9l1.2,4.8c0.1,0.4,0.4,0.6,0.7,0.6c0.1,0,0.3,0,0.4-0.1c1.9-1.4,6.2-5.5,5-14.7   C43,66.5,42.5,64.9,41.1,63.4z"/>
        <path d="M34.5,55.7c-2.3-0.4-4.3,1.7-4.7,2.1c-0.8,1.3-1.8,3.3-2,6c0,0.1,0,0.3,0,0.4c0.7-0.3,1.7-0.5,3.3-0.7   c2.4-0.3,6.4-0.8,9.1-1.1c0,0,0,0-0.1-0.1c0,0,0,0.1,0,0C38.6,58.8,36.4,56,34.5,55.7z"/>
        <path d="M25.3,44.1c1.2-0.3,0-2.9,0-2.9s-0.3-1-1.2-0.5C23.3,41.2,24.1,44.4,25.3,44.1z"/>
        <path d="M31.2,44.5c1.2,0.2,1-2.7,1-2.7s0.1-1.1-0.9-0.9C30.4,41.1,30,44.4,31.2,44.5z"/>
        <path d="M95,33.2c-0.6-1.9-2.2-2.8-3.3-3.2c1.2,1.8,1.7,4.1,1.5,6.6C94.6,34.8,95,33.2,95,33.2z"/>
        <path d="M83.2,26.4c-0.1,0-0.2,0-0.4,0c2,2.3,3.9,5.6,4.4,10.6c0.3,2.9,0,6.3-1.3,9.7C92.1,43,94.1,34,90,29.6   C87.6,27,85.1,26.4,83.2,26.4z"/>
        <path d="M22.6,51.4c0.5,0.2,0.9,0.2,1.4,0.2c0.5,0,0.9-0.1,1.3-0.2l2.9-0.8c-0.6-0.7-1.1-1.4-1.5-2l-1.4,0.6   c-0.5,0.2-1.1,0.3-1.7,0.3c-0.3,0-0.7,0-1-0.1c-1-0.2-2.4-0.5-4-0.5c-4.1,0-9.7,1.6-12.8,9.2L5,61.5c0,0,3.7-10.9,13.1-10.9   C19.4,50.7,20.9,50.9,22.6,51.4z"/>
        <path d="M27.8,54.1l-1-1.9c0,0,0-0.1,0-0.2l-1.3,0.4c-0.5,0.2-1.1,0.2-1.6,0.2c-0.6,0-1.2-0.1-1.8-0.3c-1.4-0.5-2.8-0.7-4.1-0.7   c-1.3,0-2.5,0.2-3.5,0.6c-0.3,0.5-4.4,9.3,1.4,17.1l0.8,0.8c0.3,0.3,0.8,0.2,0.9-0.2c0.4-1.4,1.1-4.1,1.1-5.7l0.9,3.4   c1.9-4.5,5.9-6.9,7.7-7.7C28.1,58,28.3,56,27.8,54.1z"/>
        <path d="M67.9,71.8c-0.4-0.5-1.2-1.4-2.1-2.3c0,0,0.1,0,0.1,0c-2.2-1.2-4.1-2.6-4.5-3.5c-0.2-0.5-0.4-0.9-0.5-1.3c0,0,0,0,0-0.1   c0-0.1-0.1-0.3-0.1-0.4c0,0,0,0,0,0c0,0,0-0.1,0-0.1l-1,0.2l0,0l-0.5,0.1c-0.1,0-0.1,0-0.2,0c-0.1,0-0.1,0-0.2,0   c-0.5-0.1-1-0.3-1.5-0.7c-2.8,0.9-3.9,2-4.3,2.6c-0.1,0.5-0.2,1.3,0.1,2.2c0.5,1.4,6.5,6.4,9.6,7c0.1-0.5,0.4-1,0.9-1.6   C64.7,72.9,66.1,72.2,67.9,71.8z"/>
        <path d="M68.9,72.7c-2.1,0.3-3.6,1-4.4,2.1c-0.3,0.4-0.4,0.8-0.5,1.1c1.1,0.9,3.9,2.9,7.2,2.9c0.3,0,0.7,0,1-0.1   C72.2,78.8,71.8,74.9,68.9,72.7z"/>
        <path d="M53.2,48.9c-0.3-0.2-0.7-0.3-1.1-0.3c-0.4,0-1,0.1-1.6,0.3c0,0-5.8,4-5.2,7.9c0.7-0.8,2.4-1.8,6-2.2   C51,52.2,53.2,48.9,53.2,48.9z"/>
        <path d="M78.4,67.2c-3.3,0.7-4.3,2.7-4.6,3.9c0.9,0.6,3.5,2,6.5,2c0.8,0,1.5-0.1,2.3-0.3C82.6,72.8,81.5,68.9,78.4,67.2z"/>
        <path d="M77.1,66.4c-1.7-1.5-7.2-6.1-10.2-6.3c0,0-0.1,0-0.3,0c-2.2,0.5-3.9,2.1-4.8,3c-0.1,0.4-0.1,1.3,0.4,2.4c0,0,0,0,0,0   c0,0,0,0,0,0c0,0,0.1,0.1,0.1,0.2c0,0,0,0,0,0c0,0,0.1,0.1,0.1,0.1c0,0,0,0,0,0c0.1,0.1,0.1,0.1,0.2,0.2c0,0,0,0,0,0   c0.1,0.1,0.2,0.1,0.2,0.2c0,0,0,0,0.1,0c0.1,0.1,0.2,0.2,0.3,0.2c0,0,0,0,0,0c0.2,0.2,0.5,0.4,0.8,0.6c0,0,0,0,0,0   c2.3,1.6,6.2,3.6,8.5,3.7C73.1,69.6,74,67.4,77.1,66.4z"/>
        <path d="M29,32.8c0.5,0,1.1,0,1.6-0.1c1-0.1,2-0.2,2.9-0.2c4.5,0,9,1.2,13,3.5c3.9,2.3,7.3,5.1,9.1,7.3c3.6,4.4,9.2,15.3,9.2,15.3   c9.4-10.6,7.6-22.6,7.6-26.1c0-0.5-0.1-1.2-0.3-1.9c-0.9-3-2.7-5.6-5.2-7.3c-5.1-3.5-10.2-4.8-14.9-4.8c-9.3,0-16.5,5.1-17.6,6.6   c-1.7,2.5-6.5,5.1-7,6.8C27.2,32.6,27.9,32.8,29,32.8z"/>
        <path d="M20.5,78.3l1.5,3.1c0,0-4.6-12.2,4.7-17.8c0.1-0.8,0.2-1.6,0.4-2.3C23.6,63.3,17.4,68.3,20.5,78.3z"/>
        <path d="M45.7,52.3C45.7,52.3,45.7,52.3,45.7,52.3c0.1-0.2,0.3-0.4,0.4-0.6c0,0,0-0.1,0.1-0.1c0.1-0.2,0.3-0.3,0.4-0.5c0,0,0,0,0,0   c-0.1-0.1-0.2-0.1-0.3-0.2c0,0,0,0,0,0c0,0,0,0,0,0c0,0-0.1,0-0.1-0.1c0,0,0,0,0,0c-0.1-0.1-0.2-0.1-0.3-0.2l0,0   c0,0-0.1-0.1-0.2-0.1c0,0,0,0,0,0c-0.1-0.1-0.1-0.1-0.2-0.2c-0.1-0.1-0.2-0.1-0.2-0.2c0,0,0,0,0,0c-0.1-0.1-0.2-0.1-0.3-0.2l0,0   c-0.1-0.1-0.2-0.1-0.3-0.2c-0.1,0-0.1-0.1-0.2-0.2l0,0c-0.1-0.1-0.2-0.1-0.3-0.2c0,0,0,0,0,0c-0.1-0.1-0.2-0.1-0.3-0.2c0,0,0,0,0,0   c-0.1-0.1-0.2-0.1-0.3-0.2c0,0,0,0,0,0c-0.1-0.1-0.2-0.1-0.3-0.2c0,0,0,0,0,0c-0.2-0.1-0.3-0.2-0.5-0.3c0,0-0.1-0.1-0.1-0.1   c0,0,0,0,0,0c-0.3-0.2-0.6-0.4-0.9-0.6c0,0,0,0,0,0c0,0-0.1-0.1-0.1-0.1c-0.2-0.1-0.4-0.2-0.7-0.4c-0.1,0-0.1-0.1-0.2-0.1   c0,0,0,0,0,0c-0.1-0.1-0.2-0.1-0.3-0.1l0,0c-0.1-0.1-0.2-0.1-0.3-0.2c0,0,0,0,0,0c-0.1,0-0.2-0.1-0.3-0.1l0,0c-0.1,0-0.1,0-0.2-0.1   c-0.1-0.1-0.3-0.1-0.4-0.2l0,0c-0.1,0-0.2-0.1-0.3-0.1c0,0,0,0,0,0c-0.3-0.1-0.5-0.1-0.8-0.2h0c-0.2,0-0.4,0-0.5,0   c-0.2,0-0.4,0-0.6,0.1c-0.1,0-0.2,0-0.3,0.1c0,0,0,0-0.1,0c0,0-0.1,0-0.1,0c0,0-0.1,0-0.1,0c0,0-0.1,0-0.1,0c0,0,0,0,0,0   c0,0-0.1,0-0.1,0c0,0,0,0,0,0c0,0-0.1,0-0.1,0.1c-0.1,0-0.1,0.1-0.2,0.1c0,0-0.1,0-0.1,0c0,0,0,0-0.1,0c-0.1,0-0.1,0.1-0.2,0.1   c0,0,0,0-0.1,0c0,0-0.1,0-0.1,0.1c0,0-0.1,0-0.1,0.1c-0.1,0-0.1,0.1-0.2,0.1c0,0,0,0,0,0c0,0-0.1,0-0.1,0.1c0,0,0,0,0,0   c-0.1,0-0.1,0.1-0.2,0.1c0,0-0.1,0.1-0.1,0.1c0,0,0,0,0,0c0,0-0.1,0.1-0.1,0.1c0,0,0,0-0.1,0c0,0-0.1,0.1-0.1,0.1   c0,0-0.1,0-0.1,0.1c0,0-0.1,0.1-0.1,0.1c0,0-0.1,0-0.1,0.1c-0.1,0.1-0.1,0.1-0.2,0.2c0,0,0,0,0,0c0,0-0.1,0.1-0.1,0.1   c-0.1,0-0.1,0.1-0.2,0.1c0,0-0.1,0-0.1,0.1c0,0,0,0,0,0c0,0-0.1,0.1-0.1,0.1c0,0,0,0-0.1,0.1c0,0,0,0-0.1,0.1c0,0-0.1,0.1-0.1,0.1   c0,0-0.1,0.1-0.1,0.1c0,0,0,0,0,0c-0.1,0.1-0.2,0.2-0.3,0.3c0,0,0,0,0,0c0,0,0,0,0,0c0,0-0.1,0.1-0.1,0.1c-0.1,0.1-0.1,0.2-0.2,0.2   c0,0.1-0.1,0.1-0.1,0.2c-0.1,0.1-0.2,0.2-0.3,0.3c0,0.1-0.1,0.1-0.1,0.2c-0.1,0.1-0.1,0.2-0.2,0.3c0,0.1-0.1,0.1-0.1,0.2   c0,0.1-0.1,0.2-0.1,0.2c0,0.1-0.1,0.1-0.1,0.2c-0.1,0.1-0.1,0.3-0.2,0.4c0,0,0,0,0,0.1c0,0,0,0,0,0c-0.5,1.1-0.7,2.3-0.4,3.5l0,0   c0,0.1,0.1,0.3,0.1,0.4c1-0.7,2.5-1.3,4-1.1c1.8,0.3,3.4,1.6,4.8,4c0.1,0,0.2,0,0.3,0c1,0,2.8-0.1,4.8-0.9   c-0.2-0.6-0.3-1.1-0.3-1.7c0-0.2,0-0.4,0-0.6c0,0,0-0.1,0-0.1c0-0.2,0.1-0.3,0.1-0.5c0-0.1,0-0.1,0-0.2c0.1-0.2,0.1-0.4,0.2-0.6   c0,0,0-0.1,0.1-0.1c0.1-0.2,0.1-0.3,0.2-0.5c0,0,0-0.1,0.1-0.1c0.1-0.2,0.2-0.4,0.3-0.6c0,0,0-0.1,0.1-0.1   C45.4,52.6,45.6,52.5,45.7,52.3z"/>
        <path d="M73,30.4c0.2,0.9,0.4,1.6,0.4,2.1c0,0.3,0,0.7,0.1,1.2c0.3,4.7,0.9,15.5-7.6,25.3c0.1,0,0.2,0,0.3,0c0.4,0,0.7,0,0.9,0   c1.1,0.1,2.5,0.6,3.9,1.4c2.3-0.8,4-1.9,4-1.9c9.5-6.4,11.9-15.5,11.2-21.5c-1.4-12.6-11.7-14.5-11.7-14.5C72.5,22.2,70.2,22,68,22   c-0.5,0-0.9,0-1.3,0c0.2,0.2,0.5,0.3,0.7,0.5C70.1,24.4,72.1,27.2,73,30.4z"/>
        <path d="M59.2,63.3l1.3-0.2c0.3-0.5,1.7-2.1,3.8-3.2l-0.4-0.7c0,0-1.2-2.3-2.8-5.1c-1.1-0.4-3.1-1-5-0.6c-2.6,0.5-2.7,2.8-2.7,3   c0,0,0,0.1,0.1,0.1C53.3,56.5,56.6,62.9,59.2,63.3z"/>
        <path d="M60.2,52.6c-1.2-2-2.4-4.2-3.7-6c0,0,0,0,0,0c0,0-4.8,4.6-4,8.2c0.5-1.1,1.4-2.2,3.2-2.5C57.4,52,59,52.3,60.2,52.6z"/>
        <path d="M30.7,33.8c-0.7,0.1-1.3,0.1-1.8,0.1c-0.5,0-1.1,0-1.6-0.2c0.2,0.7,0.8,1.6,2,2.6l4.9-2.7c-0.3,0-0.5,0-0.8,0   C32.6,33.6,31.7,33.7,30.7,33.8z"/>
        <path d="M26.5,46.7c0.1,0,0.2,0,0.3,0c0,0,1.3,2.3,3.3,4.3c0-0.1,0-0.1,0.1-0.2c1.5-2.9,4.5-5.1,6.6-5.6c0.3-0.1,0.5-0.1,0.8-0.1   c3.1,0,8.1,3.8,9.6,5.1c0,0,0,0,0,0c1.3-1.3,2.5-2.2,2.6-2.3C50,48,50.1,48,50.2,48c0.7-0.3,1.3-0.4,1.9-0.4c0.7,0,1.3,0.2,1.8,0.5   c0.9-1.2,1.8-2.1,1.9-2.2c0.1,0,0.1-0.1,0.2-0.1c-0.4-0.6-0.8-1.2-1.2-1.7c-1.9-2.3-5.2-5-8.8-7.1c-3-1.7-6.3-2.8-9.7-3.2l-8.5,4.6   c0,0-1.1-0.7-2.6-0.7c-0.7,0-1.5,0.2-2.4,0.7C20.4,40,21.8,46.7,26.5,46.7z M31.4,39.6c2.1,0,1.7,1.9,1.7,1.9s0.2,5-2.2,4.4   C28.6,45.2,29.6,39.6,31.4,39.6z M23.6,39.5c1.7-0.9,2.4,0.9,2.4,0.9s2.4,4.4,0,4.9C23.6,45.9,22,40.4,23.6,39.5z"/>
      </g>
    </g>
    <g id="SvgjsG3582" featurekey="nameFeature-0" transform="matrix(0.883325, 0, 0, 0.883325, 24.118561, 98.941888)" fill="#ffffff" style="">
      <path d="M7.9492 40.39063 c-2.1875 0 -4.8438 -0.58594 -7.4609 -1.9531 l2.4805 -4.8242 c1.3867 0.97656 2.7344 1.5039 4.2773 1.5039 c2.3047 0 3.4766 -1.3867 3.4766 -4.6875 l0 -18.652 l5.8594 0 l0 19.746 c0 5.7813 -3.5156 8.8672 -8.6328 8.8672 z M37.734812500000004 40.39063 c-6.1914 0 -11.035 -3.1641 -11.035 -10.273 l0 -18.34 l5.8594 0 l0 17.539 c0 4.2969 2.2852 5.8984 5.1758 5.8984 c2.9102 0 5.2148 -1.6211 5.2148 -5.8984 l0 -17.539 l5.8594 0 l0 18.34 c0 7.1094 -4.8633 10.273 -11.074 10.273 z M68.74965625 40.39063 c-6.0547 0 -10.781 -2.9102 -11.641 -8.2031 l6.0547 -1.3867 c0.39063 3.1641 2.7148 4.8047 5.8203 4.8047 c2.3828 0 4.2773 -1.0547 4.2578 -3.4375 c-0.019531 -2.6563 -3.1445 -3.4961 -6.582 -4.5508 c-4.1406 -1.2891 -8.5742 -2.8125 -8.5742 -8.0078 c0 -5.2539 4.2969 -8.2227 9.9609 -8.2227 c4.9609 0 9.9609 2.0117 11.094 7.4219 l-5.6641 1.4063 c-0.52734 -2.8125 -2.4219 -4.043 -5.0781 -4.043 c-2.3633 0 -4.375 0.97656 -4.375 3.3008 c0 2.168 2.7734 2.8906 5.9766 3.8477 c4.2578 1.2891 9.2969 2.9297 9.2969 8.5547 c0 5.9961 -5.0195 8.5156 -10.547 8.5156 z M104.92234375 11.777000000000001 l0 5.1563 l-6.6992 0 l0 23.066 l-5.8008 0 l0 -23.066 l-6.7383 0 l0 -5.1563 l19.238 0 z M133.3007625 34.8242 l8.8477 0 l0 5.1758 l-14.707 0 l0 -28.223 l5.8594 0 l0 23.047 z M166.83640625 16.934 l-10.469 0 l0 6.4063 l9.2773 0 l0 5.0977 l-9.2773 0 l0 6.3867 l10.469 0 l0 5.1758 l-16.367 0 l0 -28.223 l16.367 0 l0 5.1563 z M195.60540625 40 l-2.0508 -5.8203 l-11.855 0 l-2.0508 5.8203 l-5.9961 0 l10.391 -28.223 l7.168 0 l10.391 28.223 l-5.9961 0 z M183.41840625 29.277 l8.418 0 l-4.1992 -11.973 z M227.63715625 11.777000000000001 l6.2305 0 l-10.43 28.223 l-6.4453 0 l-10.371 -28.223 l6.2109 0 l7.4023 21.387 z M258.32078125 16.934 l-10.469 0 l0 6.4063 l9.2773 0 l0 5.0977 l-9.2773 0 l0 6.3867 l10.469 0 l0 5.1758 l-16.367 0 l0 -28.223 l16.367 0 l0 5.1563 z M314.7850625 40 l-5.8398 0 l-1.8555 -21.27 l-7.1484 21.27 l-3.7891 0 l-7.1484 -21.27 l-1.875 21.27 l-5.8594 0 l2.3633 -28.223 l8.3594 0 l6.0156 17.715 l6.0938 -17.715 l8.3594 0 z M341.13328125 16.934 l-10.469 0 l0 6.4063 l9.2773 0 l0 5.0977 l-9.2773 0 l0 6.3867 l10.469 0 l0 5.1758 l-16.367 0 l0 -28.223 l16.367 0 l0 5.1563 z"/>
    </g>
    <g id="SvgjsG3583" featurekey="nameFeature-1" transform="matrix(0.883325, 0, 0, 0.883325, -226.507618, 139.541781)" fill="#ffffff" style="">
      <path d="M384.1405625 40 l-2.0508 -5.8203 l-11.855 0 l-2.0508 5.8203 l-5.9961 0 l10.391 -28.223 l7.168 0 l10.391 28.223 l-5.9961 0 z M371.9535625 29.277 l8.418 0 l-4.1992 -11.973 z M418.32029375 34.8242 l8.8477 0 l0 5.1758 l-14.707 0 l0 -28.223 l5.8594 0 l0 23.047 z M447.9879375 40.39063 c-8.3008 0 -14.434 -5.6641 -14.434 -14.512 c0 -8.8672 6.1328 -14.492 14.434 -14.492 c8.2813 0 14.414 5.625 14.414 14.492 c0 8.8477 -6.1328 14.512 -14.414 14.512 z M447.9879375 35.0195 c4.8633 0 8.5938 -3.418 8.5938 -9.1406 c0 -5.7031 -3.7305 -9.1016 -8.5938 -9.1016 s-8.5938 3.3984 -8.5938 9.1016 c0 5.7227 3.7305 9.1406 8.5938 9.1406 z M490.52728125 40 l-2.0508 -5.8203 l-11.855 0 l-2.0508 5.8203 l-5.9961 0 l10.391 -28.223 l7.168 0 l10.391 28.223 l-5.9961 0 z M478.34028125 29.277 l8.418 0 l-4.1992 -11.973 z M523.88703125 11.777000000000001 l5.8398 0 l0 28.223 l-6.7773 0 l-12.5 -20.176 l0 20.176 l-5.8398 0 l0 -28.223 l6.6992 0 l12.578 20.059 l0 -20.059 z M543.6523625 40.39063 c-1.7383 0 -3.2031 -1.4453 -3.2031 -3.2031 s1.4648 -3.2422 3.2031 -3.2422 c1.7773 0 3.2422 1.4844 3.2422 3.2422 s-1.4648 3.2031 -3.2422 3.2031 z"/>
    </g>
  </g>
</svg>